<svg width="180" height="180" viewBox="0 0 180 180" fill="none" xmlns="http://www.w3.org/2000/svg">
  <defs>
    <linearGradient id="g" x1="22" y1="18" x2="156" y2="164" gradientUnits="userSpaceOnUse">
      <stop offset="0" stop-color="#FB923C" />
      <stop offset="0.55" stop-color="#F97316" />
      <stop offset="1" stop-color="#F59E0B" />
    </linearGradient>
  </defs>
  <rect x="8" y="8" width="164" height="164" rx="42" fill="url(#g)" />
  <rect x="20" y="20" width="140" height="140" rx="34" fill="#0F172A" fill-opacity="0.18" stroke="white" stroke-opacity="0.35" stroke-width="2"/>
  <path d="M57 92.4V73h8.4c6.5 0 10.3 3.6 10.3 9.6 0 6.1-3.8 9.8-10.3 9.8H57Zm4.3-3.8h4c3.8 0 6.1-2.2 6.1-6 0-3.7-2.3-5.8-6.1-5.8h-4v11.8Z" fill="white"/>
  <path d="M82.1 92.4V73h4.3v7.9h8.6V73h4.3v19.4H95v-7.7h-8.6v7.7h-4.3Z" fill="white"/>
  <path d="M117 92.9c-5.5 0-9.3-4-9.3-10.2 0-6.1 3.8-10.2 9.3-10.2 4.4 0 7.8 2.4 8.7 6.3h-4.5c-.7-1.6-2.2-2.5-4.2-2.5-3 0-5 2.4-5 6.4 0 4.1 2 6.5 5 6.5 2 0 3.5-1 4.2-2.6h4.5c-.9 4-4.3 6.3-8.7 6.3Z" fill="white"/>
</svg>
